<svg xmlns="http://www.w3.org/2000/svg" viewBox="0 0 64 64" width="64" height="64" role="img" aria-label="نشان تک‌رنگ دستمزد آرمانی">
  <title>نشان تک‌رنگ دستمزد آرمانی ۱۴۰۵</title>
  <!-- نسخه تک‌رنگ برای چاپ، حکاکی، واترمارک و فکس؛ رنگ از متن ارث می‌برد -->
  <rect x="30.3" y="7.6" width="3.4" height="7.6" rx="1.7" fill="currentColor"/>
  <rect x="30.3" y="7.6" width="3.4" height="7.6" rx="1.7" fill="currentColor" transform="rotate(45 32 32)"/>
  <rect x="30.3" y="7.6" width="3.4" height="7.6" rx="1.7" fill="currentColor" transform="rotate(90 32 32)"/>
  <rect x="30.3" y="7.6" width="3.4" height="7.6" rx="1.7" fill="currentColor" transform="rotate(135 32 32)"/>
  <rect x="30.3" y="7.6" width="3.4" height="7.6" rx="1.7" fill="currentColor" transform="rotate(180 32 32)"/>
  <rect x="30.3" y="7.6" width="3.4" height="7.6" rx="1.7" fill="currentColor" transform="rotate(225 32 32)"/>
  <rect x="30.3" y="7.6" width="3.4" height="7.6" rx="1.7" fill="currentColor" transform="rotate(270 32 32)"/>
  <rect x="30.3" y="7.6" width="3.4" height="7.6" rx="1.7" fill="currentColor" transform="rotate(315 32 32)"/>
  <circle cx="32" cy="32" r="16.6" fill="none" stroke="currentColor" stroke-width="2.2"/>
  <path d="M40.6 23.4c-8.6 1.2-13.8 5.9-14.9 13.3 8-1 13-5.8 14.9-13.3z" fill="currentColor"/>
  <path d="M24.4 37.8c-.8 1.2-1.4 2.5-1.8 3.9" fill="none" stroke="currentColor" stroke-width="1.7" stroke-linecap="round"/>
</svg>
