<svg xmlns="http://www.w3.org/2000/svg" viewBox="0 0 1170 2532" width="1170" height="2532" role="img" aria-label="صفحه راه‌انداز دستمزد آرمانی">
  <title>صفحه راه‌انداز دستمزد آرمانی — تم تیره</title>
  <defs>
    <linearGradient id="splashBg" x1="0" y1="0" x2="1170" y2="2532" gradientUnits="userSpaceOnUse">
      <stop offset="0" stop-color="#0b1418"/>
      <stop offset="0.55" stop-color="#0d1c21"/>
      <stop offset="1" stop-color="#123a3d"/>
    </linearGradient>
    <radialGradient id="splashGlow" cx="0.82" cy="0.12" r="0.6">
      <stop offset="0" stop-color="#2dd4bf" stop-opacity="0.28"/>
      <stop offset="1" stop-color="#2dd4bf" stop-opacity="0"/>
    </radialGradient>
    <linearGradient id="splashBadgeD" x1="4" y1="2" x2="60" y2="62" gradientUnits="userSpaceOnUse">
      <stop offset="0" stop-color="#2dd4bf"/>
      <stop offset="0.5" stop-color="#0d9488"/>
      <stop offset="1" stop-color="#0d4f66"/>
    </linearGradient>
  </defs>
  <rect width="1170" height="2532" fill="url(#splashBg)"/>
  <rect width="1170" height="2532" fill="url(#splashGlow)"/>
  <g transform="translate(345 1010) scale(7.5)">
    <rect width="64" height="64" rx="15" fill="url(#splashBadgeD)"/>
  <rect x="30.3" y="7.6" width="3.4" height="7.6" rx="1.7" fill="#ffffff"/>
  <rect x="30.3" y="7.6" width="3.4" height="7.6" rx="1.7" fill="#ffffff" transform="rotate(45 32 32)"/>
  <rect x="30.3" y="7.6" width="3.4" height="7.6" rx="1.7" fill="#ffffff" transform="rotate(90 32 32)"/>
  <rect x="30.3" y="7.6" width="3.4" height="7.6" rx="1.7" fill="#ffffff" transform="rotate(135 32 32)"/>
  <rect x="30.3" y="7.6" width="3.4" height="7.6" rx="1.7" fill="#ffffff" transform="rotate(180 32 32)"/>
  <rect x="30.3" y="7.6" width="3.4" height="7.6" rx="1.7" fill="#ffffff" transform="rotate(225 32 32)"/>
  <rect x="30.3" y="7.6" width="3.4" height="7.6" rx="1.7" fill="#ffffff" transform="rotate(270 32 32)"/>
  <rect x="30.3" y="7.6" width="3.4" height="7.6" rx="1.7" fill="#ffffff" transform="rotate(315 32 32)"/>
    <circle cx="32" cy="32" r="16.6" fill="#ffffff"/>
    <circle cx="32" cy="32" r="19.2" fill="none" stroke="#ffffff" stroke-opacity="0.45" stroke-width="1.2"/>
    <path d="M40.6 23.4c-8.6 1.2-13.8 5.9-14.9 13.3 8-1 13-5.8 14.9-13.3z" fill="#0d9488"/>
    <path d="M27.2 35.2c2.2-3.9 5.2-7 9.5-9.5" fill="none" stroke="#ffffff" stroke-opacity="0.85" stroke-width="1.5" stroke-linecap="round"/>
    <path d="M24.4 37.8c-.8 1.2-1.4 2.5-1.8 3.9" fill="none" stroke="#0b6f77" stroke-width="1.7" stroke-linecap="round"/>
  </g>
  <text x="585" y="1620" text-anchor="middle" font-family="Vazirmatn, Tahoma, sans-serif" font-size="86" font-weight="700" fill="#e8f1f4">دستمزد آرمانی ۱۴۰۵</text>
  <text x="585" y="1712" text-anchor="middle" font-family="Vazirmatn, Tahoma, sans-serif" font-size="44" font-weight="500" fill="#adc2c9">حقوق و دستمزد، دقیق و آرمانی</text>
  <text x="585" y="2300" text-anchor="middle" font-family="Vazirmatn, Tahoma, sans-serif" font-size="30" font-weight="400" fill="#adc2c9">شرکت صنعت بسته‌بندی نقش آرمانی</text>
</svg>
